<?xml version="1.0" encoding="UTF-8"?>
<svg version="1.1" xmlns="http://www.w3.org/2000/svg" width="2000" height="2000">
<path d="M0 0 C660 0 1320 0 2000 0 C2000 660 2000 1320 2000 2000 C1340 2000 680 2000 0 2000 C0 1340 0 680 0 0 Z " fill="#FEFEFB" transform="translate(0,0)"/>
<path d="M0 0 C2.46883556 -0.00542896 4.93766788 -0.01255594 7.40649414 -0.02124023 C13.38366006 -0.0375067 19.36054651 -0.03523598 25.33770113 -0.02358967 C30.20135281 -0.01451009 35.06494829 -0.01335076 39.92860603 -0.01768494 C40.62412051 -0.01829787 41.31963499 -0.0189108 42.03622567 -0.01954231 C43.44971197 -0.02082137 44.86319826 -0.02211823 46.27668453 -0.02343267 C59.49341468 -0.03480577 72.71003338 -0.0217768 85.92674524 -0.00023121 C97.23458515 0.01763286 108.54226072 0.01453505 119.85009766 -0.00390625 C133.02199838 -0.02537788 146.19380169 -0.03370331 159.36571747 -0.0214572 C160.77394838 -0.02018317 162.1821793 -0.01892569 163.59041023 -0.01768494 C164.28305392 -0.01706783 164.97569761 -0.01645073 165.6893305 -0.01581493 C170.53912624 -0.01238054 175.3888595 -0.01814888 180.23864555 -0.02760315 C186.78303087 -0.04008199 193.3271564 -0.03102625 199.87152863 -0.00802612 C202.26268822 -0.00277086 204.65387408 -0.00419768 207.04502296 -0.01307678 C223.09785611 -0.06715597 238.29727378 0.50485951 252.76391602 8.33007812 C253.42657471 8.67699707 254.0892334 9.02391602 254.77197266 9.38134766 C271.87987956 18.5695874 283.11376016 33.49681112 289.53735352 51.62695312 C291.68801681 59.50562065 292.62165604 66.96202364 292.60057068 75.12120056 C292.60580736 76.1413107 292.61104404 77.16142084 292.6164394 78.21244341 C292.63135332 81.60578077 292.63214266 84.99896619 292.6328125 88.39233398 C292.64043994 90.83585868 292.64886844 93.27938099 292.65803528 95.72290039 C292.67993354 102.34527626 292.68879601 108.96761649 292.69386172 115.59001994 C292.69713057 119.7347522 292.70366024 123.87947529 292.71086311 128.02420235 C292.73041865 139.52728823 292.74682833 151.03036563 292.74973965 162.5334692 C292.74992722 163.26820873 292.75011479 164.00294827 292.75030804 164.75995264 C292.75067426 166.24909309 292.75103796 167.73823355 292.75139915 169.22737401 C292.75158196 169.96646412 292.75176477 170.70555423 292.75195312 171.46704102 C292.75222395 172.57704911 292.75222395 172.57704911 292.75250024 173.7094816 C292.75603673 185.68179788 292.78303081 197.65393371 292.82045101 209.6261875 C292.85866994 221.95391068 292.87789812 234.28154466 292.87819916 246.60932833 C292.87878077 253.51637026 292.88707946 260.42319702 292.91619682 267.33018303 C292.94349548 273.83511388 292.94450088 280.33973275 292.92854118 286.84470367 C292.92673814 289.21848798 292.93331252 291.59229747 292.94935989 293.96602821 C293.09479072 316.89518431 290.01939548 339.26599731 273.43408203 356.46362305 C272.07609347 357.82622984 270.70171206 359.17244208 269.32641602 360.51757812 C268.37508789 361.51724609 268.37508789 361.51724609 267.40454102 362.53710938 C263.40092746 366.46100496 258.81520863 369.11336511 253.88891602 371.70507812 C253.29957275 372.02637695 252.71022949 372.34767578 252.10302734 372.67871094 C236.79595455 380.29581599 220.0934773 380.09719131 203.42578125 380.03515625 C200.95665069 380.0405871 198.48752337 380.04771513 196.0184021 380.05639648 C190.04819439 380.07264262 184.07826672 380.07040357 178.10807043 380.05874592 C173.2501874 380.04965836 168.39236063 380.04851039 163.53447151 380.05284119 C162.49160626 380.05376058 162.49160626 380.05376058 161.42767303 380.05469856 C160.01466979 380.05597764 158.60166657 380.0572745 157.18866337 380.05858892 C143.9852773 380.06995452 130.78200291 380.05694407 117.57863516 380.03538746 C106.28332466 380.01751615 94.98817865 380.02062863 83.69287109 380.0390625 C70.53047789 380.06053383 57.36818216 380.0688604 44.20577389 380.05661345 C42.79869753 380.05533944 41.39162115 380.05408195 39.98454475 380.05284119 C38.94646418 380.05191553 38.94646418 380.05191553 37.88741229 380.05097118 C33.04260276 380.04753729 28.19785579 380.05330386 23.35305595 380.0627594 C16.81685177 380.07523743 10.28090772 380.06618364 3.74471664 380.04318237 C1.35678047 380.03792722 -1.03118199 380.03935374 -3.41910744 380.04823303 C-28.21754733 380.13189023 -48.46970823 376.07004179 -67.00561523 358.27929688 C-80.64390727 344.08339154 -86.82448375 326.71585887 -86.820755 307.22293091 C-86.82443169 306.18778756 -86.82810838 305.15264421 -86.83189648 304.08613288 C-86.84290776 300.61812651 -86.84677287 297.15015013 -86.85058594 293.68212891 C-86.85685263 291.1949199 -86.86349962 288.70771182 -86.87049866 286.22050476 C-86.88970564 278.75678992 -86.90032488 271.29308305 -86.90922645 263.82935077 C-86.913617 260.30787272 -86.91898189 256.78639616 -86.92421532 253.26491928 C-86.94122495 241.54667282 -86.95571616 229.82842727 -86.96296406 218.11017036 C-86.96487372 215.07214481 -86.96679408 212.03411927 -86.96875 208.99609375 C-86.96923374 208.24107696 -86.96971748 207.48606017 -86.97021588 206.70816408 C-86.97850519 194.49433926 -87.00382467 182.28061273 -87.03633068 170.06683077 C-87.06948732 157.50534377 -87.08742064 144.94390656 -87.0906083 132.3823756 C-87.09276567 125.33846429 -87.10140004 118.29469622 -87.12706947 111.25082779 C-87.15118931 104.6171351 -87.15454845 97.98365248 -87.14430809 91.34990883 C-87.14381469 88.92487926 -87.15007677 86.49983669 -87.16386414 84.07484627 C-87.2912983 60.31765875 -83.73258641 39.34500408 -66.67358398 21.51757812 C-61.02505527 16.00772033 -54.90277065 11.81201159 -47.92358398 8.20507812 C-47.32932617 7.8916748 -46.73506836 7.57827148 -46.12280273 7.25537109 C-31.1780385 -0.04151144 -16.27305178 -0.06037104 0 0 Z " fill="#F5C518" transform="translate(902.673583984375,1281.482421875)"/>
<path d="M0 0 C2.50370153 -0.00350826 5.00740081 -0.00917474 7.51109314 -0.01681519 C13.56110986 -0.02950425 19.61067553 -0.01923512 25.66063342 0.00229806 C32.72422907 0.02650194 39.78775008 0.02458204 46.85137799 0.02199215 C59.4615354 0.01831576 72.07153431 0.03901132 84.68164062 0.07324219 C96.88643392 0.10635992 109.09106111 0.12049289 121.29589844 0.11425781 C134.63039904 0.107479 147.96483045 0.10999354 161.29932088 0.12961721 C162.0056842 0.1306567 162.71204752 0.13169619 163.43981579 0.13276717 C164.858005 0.13485786 166.27619418 0.13696882 167.69438333 0.13910034 C172.60571795 0.14596512 177.51703111 0.14667046 182.42836952 0.1452179 C189.04663447 0.14361988 195.66472968 0.158638 202.28295326 0.18444443 C204.70439703 0.19157682 207.12586178 0.19370405 209.54731369 0.19032669 C224.51634334 0.17343713 238.37288051 0.15802581 251.9128418 7.36523438 C252.92604492 7.89020508 252.92604492 7.89020508 253.9597168 8.42578125 C259.33713314 11.28511898 264.14326013 14.51396409 268.6628418 18.61523438 C269.33444336 19.20691406 270.00604492 19.79859375 270.69799805 20.40820312 C283.48236177 32.35505554 291.56644901 49.66723002 292.84959483 67.16138864 C292.92382393 69.85576271 292.93918071 72.5436646 292.93026733 75.23904419 C292.93479845 76.26127103 292.93932956 77.28349787 292.94399798 78.33670127 C292.95658417 81.73704699 292.95502534 85.13723134 292.95336914 88.53759766 C292.95935805 90.98598942 292.96616443 93.4343793 292.97372437 95.88276672 C292.98952702 101.82911177 292.99583123 107.77541945 292.99694912 113.72178121 C292.99790257 118.56075122 293.00202761 123.39970826 293.00835037 128.23867416 C293.02594769 141.98826829 293.03519178 155.73783132 293.03368942 169.48743679 C293.03360951 170.22731507 293.0335296 170.96719335 293.03344727 171.72949219 C293.0333655 172.47028451 293.03328374 173.21107684 293.0331995 173.97431742 C293.03238736 185.96803304 293.05151091 197.96162287 293.079724 209.95530213 C293.10853118 222.29996037 293.12225995 234.64455741 293.12053645 246.98925006 C293.11987517 253.9078973 293.1252513 260.82641269 293.14689255 267.74502945 C293.16713377 274.2573102 293.16635101 280.76938534 293.15185928 287.28168297 C293.14977874 289.66155976 293.15442662 292.04145422 293.1665802 294.42130089 C293.2821092 318.62594821 289.30667684 340.64443412 271.9128418 358.86523438 C252.39541925 377.49684349 228.97478188 380.23507937 203.28125 380.10107422 C200.86798904 380.10322449 198.45472911 380.1071087 196.04147339 380.11257935 C190.20830112 380.12121131 184.37537853 380.1114916 178.5422341 380.09287874 C171.7305113 380.07193778 164.91883596 380.07225565 158.10708704 380.0732239 C145.944553 380.07422144 133.78212478 380.05600132 121.61962891 380.02685547 C109.85138015 379.99866951 98.08322439 379.98451507 86.31494141 379.98583984 C85.58953544 379.98591976 84.86412948 379.98599967 84.11674152 379.986082 C83.39251592 379.98616271 82.66829032 379.98624342 81.92211848 379.98632658 C68.47152684 379.98771041 55.02097423 379.975905 41.57039529 379.95802014 C36.8358776 379.9520189 32.10136716 379.94986481 27.36684608 379.94895554 C20.98336074 379.94693711 14.59997184 379.93464996 8.2165184 379.91462326 C5.88256992 379.90881404 3.54861034 379.90631419 1.21465492 379.90747833 C-24.16224629 379.91534197 -46.63287639 377.39424238 -66.02075195 359.06445312 C-79.6136598 344.692188 -86.49537924 327.02010341 -86.4776001 307.38978577 C-86.48057122 306.36210396 -86.48354234 305.33442215 -86.4866035 304.27559847 C-86.49527308 300.83289397 -86.4967973 297.39022431 -86.49829102 293.94750977 C-86.50292053 291.47838263 -86.50794537 289.00925621 -86.51333618 286.54013062 C-86.52645191 279.83101371 -86.532941 273.1219104 -86.53734684 266.41278386 C-86.54011431 262.21785497 -86.54435267 258.02292837 -86.54885101 253.82800102 C-86.56104246 242.19810792 -86.57134079 230.56821665 -86.5747261 218.9383173 C-86.57494567 218.19449581 -86.57516524 217.45067432 -86.57539146 216.68431279 C-86.57560973 215.93877144 -86.57582801 215.19323008 -86.5760529 214.42509657 C-86.57649636 212.91450123 -86.57694292 211.40390589 -86.57739258 209.89331055 C-86.57761401 209.14401268 -86.57783544 208.3947148 -86.57806358 207.62271094 C-86.58200619 195.49876112 -86.59944435 183.3748716 -86.6227521 171.25094504 C-86.64652576 158.78325346 -86.65893075 146.31559204 -86.66009402 133.84787744 C-86.66100761 126.85600559 -86.66667948 119.86421224 -86.68491364 112.87236214 C-86.70202324 106.2887606 -86.70352248 99.705281 -86.69477463 93.12165451 C-86.69400719 90.71394769 -86.69830803 88.30623271 -86.70823288 85.89854622 C-86.80613903 60.65318473 -83.35626788 39.94231456 -65.7355957 20.78710938 C-46.64565718 2.42923339 -25.31809379 -0.15061279 0 0 Z " fill="#FCEDB9" transform="translate(902.337158203125,808.384765625)"/>
<path d="M0 0 C2.46913056 -0.00543085 4.93825788 -0.01255888 7.40737915 -0.02124023 C13.37758686 -0.03748637 19.34751453 -0.03524732 25.31771082 -0.02358967 C30.17559385 -0.01450211 35.03342062 -0.01335414 39.89130974 -0.01768494 C40.93417499 -0.01860433 40.93417499 -0.01860433 41.99810822 -0.01954231 C43.41111146 -0.02082139 44.82411468 -0.02211825 46.23711788 -0.02343267 C59.44050395 -0.03479827 72.64377834 -0.02178782 85.84714609 -0.00023121 C97.14245659 0.0176401 108.4376026 0.01452762 119.73291016 -0.00390625 C132.89530336 -0.02537758 146.05759909 -0.03370415 159.22000736 -0.0214572 C160.62708372 -0.02018319 162.0341601 -0.0189257 163.4412365 -0.01768494 C164.47931707 -0.01675928 164.47931707 -0.01675928 165.53836896 -0.01581493 C170.38317849 -0.01238104 175.22792546 -0.01814761 180.0727253 -0.02760315 C186.60892948 -0.04008118 193.14487353 -0.03102739 199.68106461 -0.00802612 C202.06900078 -0.00277097 204.45696324 -0.00419749 206.84488869 -0.01307678 C222.84104149 -0.06703958 238.04307528 0.4991574 252.47436523 8.26757812 C253.135896 8.61481934 253.79742676 8.96206055 254.47900391 9.31982422 C271.48540377 18.51146249 282.89018841 33.66691377 288.88123322 51.8966732 C292.05139835 63.42957481 291.53598533 75.14091042 291.51928711 87.00830078 C291.52663592 89.48182557 291.5352245 91.95534695 291.54495239 94.42886353 C291.56479999 100.42597118 291.57055355 106.42293357 291.56876451 112.42006119 C291.56745101 117.30184601 291.57129082 122.1836009 291.57868958 127.0653801 C291.58078904 128.47770766 291.58288664 129.89003523 291.5849824 131.3023628 C291.58654769 132.35719344 291.58654769 132.35719344 291.5881446 133.4333338 C291.60700346 146.70209996 291.60601052 159.97081072 291.59917527 173.23958473 C291.59360614 185.33781381 291.61440608 197.43583071 291.64753574 209.53401025 C291.68139689 221.99743848 291.69642548 234.46076545 291.69181871 246.92424047 C291.68958612 253.90500252 291.69463776 260.88556866 291.7197113 267.86629105 C291.74311642 274.43776382 291.73999185 281.00887238 291.71978378 287.58037949 C291.71639656 289.97834876 291.72136277 292.37634833 291.73576736 294.77427673 C291.86910276 318.63625884 288.55920976 339.41251434 271.36499023 357.27929688 C270.61733398 358.01792969 269.86967773 358.7565625 269.09936523 359.51757812 C268.41358398 360.22527344 267.72780273 360.93296875 267.02124023 361.66210938 C260.88918123 367.60112208 253.79930158 371.07912674 246.09936523 374.51757812 C245.34397461 374.85789062 244.58858398 375.19820312 243.81030273 375.54882812 C235.09998801 379.13331978 225.78576588 379.8164643 216.47592163 379.77827454 C215.46579659 379.78210008 214.45567155 379.78592563 213.41493666 379.7898671 C210.06148218 379.80010924 206.70820174 379.7962217 203.35473633 379.79223633 C200.93737633 379.79658776 198.52001772 379.80177235 196.10266113 379.807724 C190.23565596 379.81969623 184.36869328 379.82227059 178.50168054 379.81992374 C173.72662612 379.81813438 168.95158552 379.81990341 164.17653275 379.82414818 C163.49464184 379.82474337 162.81275093 379.82533856 162.11019666 379.82595178 C160.72449496 379.82716366 159.33879327 379.82837779 157.95309158 379.82959416 C144.97912239 379.84045193 132.00517923 379.83831604 119.03120859 379.83220931 C107.19668313 379.82704627 95.36224014 379.83828252 83.52773099 379.85730753 C71.34236917 379.87674452 59.15704624 379.88493141 46.97166884 379.88118428 C40.14413401 379.87928051 33.31666926 379.88167837 26.48914719 379.89589882 C20.06221823 379.90854032 13.63545326 379.90647348 7.20852661 379.89348793 C4.86132373 379.89113603 2.51410908 379.89380656 0.16691971 379.90211105 C-25.1005512 379.98500069 -48.12242303 377.36939065 -67.08813477 358.89257812 C-81.19149071 344.51012609 -88.05162708 326.16440782 -88.04780579 306.25416565 C-88.05148247 305.22240029 -88.05515916 304.19063493 -88.05894727 303.12760395 C-88.06995817 299.67108311 -88.07382358 296.21459237 -88.07763672 292.75805664 C-88.08390341 290.2790772 -88.09055039 287.8000987 -88.09754944 285.32112122 C-88.11675543 277.88262514 -88.12737512 270.44413706 -88.13627723 263.00562349 C-88.1406676 259.49646903 -88.1460325 255.98731605 -88.1512661 252.47816277 C-88.16827494 240.80194824 -88.18276664 229.12573463 -88.19001484 217.44950962 C-88.19192451 214.4224758 -88.19384487 211.39544199 -88.19580078 208.3684082 C-88.19628452 207.61611972 -88.19676826 206.86383123 -88.19726666 206.08874612 C-88.2055578 193.91627803 -88.23088073 181.74390849 -88.26338146 169.57148338 C-88.29652883 157.05407168 -88.31447056 144.53670994 -88.31765908 132.01925415 C-88.31981721 124.99940781 -88.32846292 117.97970516 -88.35412025 110.95990181 C-88.37822456 104.35001451 -88.38160498 97.74033809 -88.37135887 91.1303997 C-88.37086514 88.71301286 -88.37713729 86.29561302 -88.39091492 83.87826538 C-88.47619053 68.02065708 -87.7770023 53.70364945 -80.33813477 39.33007812 C-80.00297852 38.67209229 -79.66782227 38.01410645 -79.32250977 37.33618164 C-75.57982809 30.37016604 -70.56081931 24.96843632 -64.90063477 19.51757812 C-63.93383789 18.52177734 -63.93383789 18.52177734 -62.94750977 17.50585938 C-45.60881787 0.73255961 -22.64787685 -0.08429253 0 0 Z " fill="#E05A20" transform="translate(1376.900634765625,808.482421875)"/>
<path d="M0 0 C2.49868781 -0.00514803 4.99737197 -0.01243593 7.49604797 -0.02168274 C13.538509 -0.03818675 19.58052824 -0.03164029 25.62295086 -0.01359452 C30.53947878 0.00051357 35.45591892 0.00430681 40.37246513 0.00096321 C41.07603472 0.00048577 41.7796043 0.00000833 42.50449417 -0.00048358 C43.93440841 -0.00151006 45.36432263 -0.00256543 46.79423683 -0.00364935 C59.39706898 -0.01218849 71.99974494 0.00436822 84.60253906 0.03417969 C96.7936865 0.06301645 108.98460905 0.0700941 121.17578125 0.0546875 C134.49639464 0.03787629 147.81690162 0.03394059 161.13751787 0.05139786 C162.56144518 0.05324198 163.98537251 0.05507671 165.40929985 0.05690193 C166.10964589 0.05781402 166.80999194 0.05872611 167.53156059 0.05966584 C172.43497448 0.06524028 177.3383359 0.06199322 182.2417469 0.05535698 C188.85675729 0.04675848 195.4714945 0.05994873 202.08646965 0.08720589 C204.50342736 0.09404928 206.92041528 0.09423159 209.33737183 0.08699036 C222.45659013 0.05223538 234.28196552 0.53458551 246.82397461 4.63110352 C247.77137544 4.93149253 248.71877626 5.23188154 249.69488621 5.54137325 C267.52679725 11.52409374 279.64801215 26.39247139 287.82397461 42.63110352 C294.84148057 56.84467793 294.25500064 71.64108103 294.2121582 87.109375 C294.21622845 89.58115877 294.22157286 92.05294071 294.22808838 94.52471924 C294.24030282 100.51615101 294.23857726 106.5074261 294.22985046 112.49885159 C294.22304773 117.37304914 294.22216832 122.24721514 294.22542191 127.12141609 C294.2258816 127.817779 294.2263413 128.5141419 294.22681493 129.23160671 C294.22777421 130.64670754 294.22874685 132.06180836 294.22973271 133.47690917 C294.2382676 146.71644176 294.22848275 159.95591183 294.21233161 173.19543416 C294.19893311 184.528921 294.20125634 195.86231561 294.21508789 207.19580078 C294.23118253 220.3896297 294.2374407 233.58340393 294.2282511 246.77724129 C294.22729556 248.18715258 294.22635244 249.59706387 294.22542191 251.00697517 C294.22495908 251.70049026 294.22449625 252.39400535 294.2240194 253.10853605 C294.22144091 257.97025839 294.22577579 262.83194573 294.23286057 267.69366264 C294.2422073 274.25110783 294.23544779 280.80840693 294.2181778 287.36584473 C294.21423047 289.76429521 294.21531669 292.1627604 294.22196579 294.56120491 C294.28568028 319.89065539 290.55054047 340.27902128 272.51147461 359.38110352 C264.53134266 367.03328484 255.1875622 371.95410767 244.82397461 375.63110352 C244.12615344 375.87984868 243.42833227 376.12859384 242.70936501 376.38487673 C236.29266629 378.50593571 230.54991831 379.06226706 223.82052612 379.0255127 C222.22593258 379.03464935 222.22593258 379.03464935 220.59912503 379.04397058 C217.0605202 379.06053119 213.52227796 379.05583454 209.98364258 379.05102539 C207.4367282 379.05836986 204.88981714 379.06695719 202.34291077 379.07669067 C196.15590316 379.09657697 189.96902747 379.10228923 183.78199224 379.10050279 C178.74755489 379.09919148 173.71314663 379.10301808 168.67871475 379.11042786 C167.22454775 379.11252723 165.77038074 379.11462483 164.31621373 379.11672068 C163.59225219 379.1177642 162.86829065 379.11880773 162.12239088 379.11988288 C148.4488472 379.13875988 134.77535724 379.13774329 121.10180594 379.13091356 C108.62307032 379.1253439 96.14454036 379.14614334 83.66585277 379.17927402 C70.82398036 379.21310165 57.98220621 379.22816784 45.14028847 379.223557 C37.9421625 379.22132094 30.74422643 379.22642763 23.54613876 379.25144958 C16.77111832 379.27480189 9.99659313 379.27177034 3.22154045 379.25152206 C0.74491097 379.24812621 -1.73174764 379.25313906 -4.20833778 379.26750565 C-26.51981 379.38792931 -46.05086564 375.97141222 -62.92333984 360.02880859 C-79.47670668 343.647094 -85.52258442 323.80937047 -85.7022258 301.01858366 C-85.70720368 297.61104392 -85.69269984 294.20389281 -85.67773438 290.79638672 C-85.68152413 288.32253717 -85.68702955 285.84868974 -85.69410706 283.37484741 C-85.70655435 277.39012763 -85.7005585 271.40569471 -85.68543147 265.42100302 C-85.66845409 258.43484334 -85.67179617 251.44873499 -85.67552555 244.46256103 C-85.68138557 231.98997194 -85.66730419 219.51748425 -85.64257812 207.04492188 C-85.61864734 194.97196659 -85.61158229 182.89914663 -85.62207031 170.82617188 C-85.63350474 157.6403823 -85.63537968 144.45465509 -85.62097222 131.26886624 C-85.61944656 129.86042385 -85.6179262 128.45198145 -85.61641121 127.04353905 C-85.61565339 126.35076821 -85.61489558 125.65799737 -85.6141148 124.94423348 C-85.60939266 120.086519 -85.61120852 115.22883258 -85.61547661 110.37111855 C-85.62094543 103.82347613 -85.61006427 97.27599253 -85.58852196 90.72837448 C-85.58298104 88.33273 -85.58246385 85.93706754 -85.58747482 83.54142189 C-85.61459134 68.71280112 -85.63697463 54.92049923 -78.48852539 41.50610352 C-77.96524658 40.49954712 -77.96524658 40.49954712 -77.43139648 39.47265625 C-68.05975179 21.88451571 -54.02799462 8.96016663 -34.78468323 2.93617249 C-23.37732511 -0.47578726 -11.80034297 -0.0622301 0 0 Z " fill="#F5C518" transform="translate(1374.176025390625,335.368896484375)"/>
<path d="M0 0 C1.03080081 -0.00594224 2.06160161 -0.01188449 3.12363881 -0.0180068 C6.55919985 -0.03527517 9.99462065 -0.0383883 13.43022156 -0.04138184 C15.90153294 -0.05064593 18.37284148 -0.06069629 20.84414673 -0.07147217 C27.54722753 -0.09765565 34.25025398 -0.11067336 40.95337319 -0.11949348 C45.14852857 -0.12503758 49.34367486 -0.1335159 53.53882408 -0.14250183 C65.18083395 -0.16687778 76.82283659 -0.18747575 88.46487141 -0.19425201 C89.20879733 -0.19469115 89.95272326 -0.19513028 90.7191924 -0.19558272 C91.83758445 -0.19623755 91.83758445 -0.19623755 92.97857028 -0.19690561 C94.48914675 -0.19779251 95.99972322 -0.19868563 97.51029968 -0.19958496 C98.63422033 -0.20024925 98.63422033 -0.20024925 99.78084644 -0.20092696 C111.89807819 -0.20880825 124.01506831 -0.24367533 136.13220689 -0.29030401 C148.6079348 -0.33792009 161.08354199 -0.36266438 173.55936211 -0.36498785 C180.54977259 -0.36681124 187.53986845 -0.37805658 194.53019142 -0.41462708 C201.11558634 -0.44896033 207.70049453 -0.45179472 214.28598976 -0.43434906 C216.68838602 -0.43281974 219.09081561 -0.44134107 221.49312973 -0.46126556 C246.55472022 -0.65674788 267.90538619 4.38349163 286.4094696 22.28088379 C303.20637549 41.34485673 306.01706559 60.80320326 305.89530945 85.17980957 C305.89745834 87.68454181 305.90134053 90.18927307 305.90681458 92.69400024 C305.91546537 98.76155007 305.90569608 104.82881007 305.88711397 110.89631619 C305.86622033 117.97620525 305.86648966 125.05604827 305.86745913 132.13596235 C305.86845772 144.77497316 305.85020864 157.41388231 305.8210907 170.05285645 C305.79290932 182.29180757 305.77874992 194.53066931 305.78007507 206.76965332 C305.78015499 207.52386122 305.7802349 208.27806912 305.78031723 209.05513181 C305.78039794 209.80809104 305.78047865 210.56105027 305.7805618 211.33682644 C305.78194459 225.30975108 305.77014528 239.28263808 305.75225537 253.25555048 C305.74624586 258.1803284 305.74409903 263.10509935 305.74319077 268.02988052 C305.74167701 274.66693257 305.72891339 281.30390357 305.70885849 287.94092941 C305.7030385 290.37085652 305.70055165 292.80079435 305.70171356 295.23072815 C305.70270225 298.55834544 305.69131296 301.88570602 305.67689514 305.21328735 C305.67999235 306.16486634 305.68308955 307.11644533 305.68628061 308.09686005 C305.61678176 317.87156373 304.41126335 327.41515726 300.2844696 336.34338379 C299.97880066 337.01893311 299.67313171 337.69448242 299.35820007 338.39050293 C290.62225079 357.00139236 275.79883596 369.06583905 256.77275085 376.27307129 C248.72644799 378.68415856 241.07661724 379.57506964 232.6962738 379.5415802 C231.66446873 379.54540575 230.63266366 379.54923129 229.56959176 379.55317277 C226.13693303 379.56343231 222.70444378 379.55952402 219.27177429 379.55554199 C216.80043382 379.55989241 214.3290947 379.56507665 211.85775757 379.57102966 C205.85592251 379.58301006 199.85415322 379.58557515 193.85231224 379.5832294 C188.96946603 379.58144142 184.08663335 379.58320614 179.20378876 379.58745384 C178.50701938 379.58804903 177.81025001 379.58864422 177.09236641 379.58925745 C175.67654099 379.59046929 174.26071557 379.59168342 172.84489015 379.59289982 C159.58535755 379.60376079 146.32585042 379.60161994 133.0663164 379.59551498 C120.96134058 379.5903493 108.85644532 379.60159459 96.75148544 379.6206132 C84.29609697 379.64003097 71.84074653 379.64824056 59.38534284 379.64448994 C52.40307034 379.64258358 45.42086634 379.64500988 38.43860626 379.65920448 C31.86889875 379.67242611 25.29932509 379.66980493 18.72960854 379.65679359 C16.32631945 379.65443589 13.92301893 379.6571334 11.51974297 379.66541672 C-13.82875759 379.74644543 -34.22293424 376.02210023 -53.3405304 357.96838379 C-71.24728144 339.3261769 -73.04409686 317.73009699 -73.01045227 293.28356934 C-73.01780059 290.75591661 -73.02638903 288.22826724 -73.03611755 285.70062256 C-73.05596669 279.57217917 -73.0617187 273.44386897 -73.05992967 267.31539782 C-73.05861663 262.32870568 -73.06245366 257.34204285 -73.06985474 252.35535622 C-73.07195417 250.91321192 -73.07405177 249.47106763 -73.07614756 248.02892333 C-73.07719108 247.31089512 -73.07823461 246.5928669 -73.07930976 245.85308025 C-73.09816819 232.30542291 -73.09717538 218.75781983 -73.09034044 205.21015481 C-73.08476735 192.84800668 -73.10558818 180.48606593 -73.1387009 168.12396624 C-73.17252862 155.39499995 -73.18759503 142.66613276 -73.18298388 129.93712074 C-73.18074845 122.80499048 -73.18584573 115.67305188 -73.21087646 108.54096031 C-73.23422844 101.83073991 -73.23119727 95.12101955 -73.21094894 88.4107666 C-73.20755349 85.9583229 -73.21256419 83.50584977 -73.22693253 81.05344582 C-73.36352606 55.99653102 -68.05400258 37.77525412 -50.53974915 19.09338379 C-42.14662984 11.00058326 -30.80704022 5.26452963 -19.5905304 2.28088379 C-18.93077503 2.1035126 -18.27101966 1.92614141 -17.5912717 1.74339533 C-11.67288081 0.28889958 -6.07785999 -0.01110527 0 0 Z " fill="#FCEDB9" transform="translate(415.5905303955078,1281.7191162109375)"/>
<path d="M0 0 C0.89122063 -0.00507454 1.78244126 -0.01014909 2.70066857 -0.0153774 C3.67059109 -0.01587516 4.64051362 -0.01637292 5.63982773 -0.01688576 C6.67749464 -0.02126801 7.71516155 -0.02565027 8.78427291 -0.03016531 C12.26686774 -0.04353641 15.74943727 -0.04972851 19.23205185 -0.0558567 C21.72734313 -0.06375925 24.22263327 -0.0720283 26.71792221 -0.08063698 C34.21171909 -0.10458416 41.70551177 -0.11978607 49.19933379 -0.13269705 C51.31866252 -0.13641231 53.4379906 -0.14038529 55.55731869 -0.14444971 C68.73781111 -0.16969666 81.91830466 -0.19173466 95.09881592 -0.20417786 C98.15006387 -0.20710723 101.20131179 -0.21006894 104.25255966 -0.21308327 C105.39002556 -0.21420234 105.39002556 -0.21420234 106.55047056 -0.21534403 C118.81220653 -0.22797549 131.07379677 -0.26117008 143.33546475 -0.3028851 C155.94551443 -0.34543077 168.55548981 -0.36888766 181.16561103 -0.37409842 C188.23699331 -0.37749897 195.30814814 -0.38909209 202.37945938 -0.42220116 C209.0411214 -0.45334208 215.7023201 -0.45854817 222.36406708 -0.4468174 C224.7983574 -0.4465977 227.2326667 -0.45481579 229.66689301 -0.47247124 C254.16516018 -0.64036615 274.52201375 3.88894248 292.77404404 21.37920189 C306.90568491 36.11475904 312.57759816 53.52679691 312.58810043 73.61401939 C312.59248269 74.64467134 312.59686494 75.67532329 312.60137999 76.73720711 C312.61469525 80.17817672 312.62093048 83.61912075 312.62707138 87.06011009 C312.6349782 89.53289465 312.64324751 92.00567808 312.65185165 94.47846031 C312.67574996 101.88944197 312.69099024 109.30041936 312.70391172 116.71142629 C312.70763012 118.80847173 312.71160281 120.90551653 312.71566439 123.00256133 C312.7409081 136.05573314 312.76293712 149.10890617 312.77539253 162.16209698 C312.77832169 165.18051024 312.78128343 168.19892347 312.78429794 171.21733665 C312.78504399 171.9674449 312.78579004 172.71755314 312.7865587 173.49039193 C312.79919208 185.62125625 312.83239326 197.75197335 312.87409978 209.88276897 C312.91667118 222.36862191 312.94010502 234.85439979 312.9453131 247.34032506 C312.9487101 254.33795106 312.9602612 261.33534698 312.99341583 268.332901 C313.0245994 274.92479646 313.02974864 281.51636653 313.01803207 288.10834885 C313.01781273 290.51438833 313.02600126 292.92044724 313.04368591 295.32642174 C313.21747805 320.35327238 309.17040521 340.60943359 291.41466904 359.25810814 C275.3118389 374.58417838 255.48657008 379.28853179 233.84199142 379.28418541 C232.83524437 379.2878621 231.82849732 379.29153879 230.79124278 379.29532689 C227.44932286 379.30625753 224.10743414 379.31018927 220.76549911 379.31401634 C218.35636931 379.32028886 215.94724046 379.32693635 213.53811264 379.33392906 C206.33603919 379.35306494 199.13396531 379.36374086 191.93187359 379.37265685 C189.21275273 379.37617299 186.49363301 379.38031865 183.7745131 379.38449651 C171.76479512 379.40294671 159.7550771 379.41869552 147.74534702 379.42639446 C144.81472713 379.42830391 141.88410725 379.43022432 138.9534874 379.4321804 C138.22522303 379.43266414 137.49695867 379.43314789 136.74662568 379.43364628 C124.95344141 379.441944 113.16035863 379.46728449 101.36721865 379.49976108 C89.22593792 379.53292089 77.08470866 379.55085095 64.94338244 379.5540387 C58.13987611 379.55619475 51.33651814 379.56481057 44.53305626 379.59049988 C38.12991027 379.61387198 31.72703022 379.61797703 25.32385254 379.60773849 C22.98428395 379.60724531 20.64470185 379.61350103 18.30517387 379.62729454 C2.38320588 379.71585898 -12.65571826 379.08159555 -27.00329971 371.32451439 C-27.66450821 370.97977074 -28.32571671 370.63502708 -29.00696182 370.27983665 C-34.3221966 367.43395098 -39.0818281 364.18193045 -43.56579971 360.13701439 C-44.46298721 359.37711205 -44.46298721 359.37711205 -45.37829971 358.60185814 C-56.83048638 348.19775105 -64.59713052 331.06026513 -65.75340724 315.63409686 C-65.82757165 312.87465732 -65.84206281 310.12141011 -65.83322525 307.36098289 C-65.83775636 306.31032005 -65.84228748 305.2596572 -65.8469559 304.17715609 C-65.85956395 300.6746351 -65.85798182 297.17227033 -65.85632706 293.66972923 C-65.86231461 291.15089787 -65.86912068 288.63206833 -65.87668228 286.1132412 C-65.89249674 279.9912918 -65.89878977 273.86939911 -65.89990704 267.7474312 C-65.90085987 262.76636169 -65.90498187 257.78530479 -65.91130829 252.80423927 C-65.92890948 238.65630881 -65.93814912 224.50840861 -65.93664734 210.36046712 C-65.93656743 209.59885174 -65.93648752 208.83723636 -65.93640518 208.05254173 C-65.93632342 207.28998729 -65.93624166 206.52743285 -65.93615742 205.7417707 C-65.93534523 193.39489179 -65.95446898 181.04813508 -65.98268192 168.70129149 C-66.01147726 155.99845606 -66.02521851 143.29568009 -66.02349436 130.59281123 C-66.02283267 123.47129694 -66.02822743 116.34991071 -66.04985046 109.22842598 C-66.07007278 102.52570959 -66.06932095 95.82330717 -66.0548172 89.1205616 C-66.05273447 86.66931322 -66.05739776 84.21804774 -66.06953812 81.76682854 C-66.17506344 58.97261188 -63.08538785 40.89794348 -47.56579971 23.13701439 C-47.00763565 22.4731472 -46.44947159 21.80928001 -45.87439346 21.12529564 C-34.93202368 9.09577897 -16.34804208 0.04970489 0 0 Z " fill="#F5C518" transform="translate(408.56579971313477,808.8629856109619)"/>
<path d="M0 0 C2.49635469 -0.00243096 4.9927084 -0.00615323 7.48905945 -0.01106262 C13.5396486 -0.01946186 19.59007711 -0.01399588 25.64064766 -0.00179968 C32.69906153 0.01189264 39.75744751 0.01017616 46.81587128 0.00806699 C59.41552074 0.00488461 72.01511346 0.01650236 84.61474609 0.03613281 C96.81886522 0.05514183 109.02291791 0.06221729 121.22705078 0.05664062 C134.54499926 0.05057293 147.86291862 0.05077741 161.18086469 0.06212646 C162.6027987 0.06333364 164.02473271 0.06453963 165.44666672 0.0657444 C166.14613216 0.06634794 166.84559761 0.06695148 167.56625897 0.06757331 C172.47747095 0.07144024 177.38867203 0.07106363 182.2998848 0.06915855 C188.91721521 0.066806 195.53447284 0.07541866 202.15178871 0.09121895 C204.57568702 0.09544973 206.99959395 0.0963205 209.42349434 0.09352875 C212.74056171 0.09028872 216.05737854 0.09943455 219.37442017 0.11161804 C220.32570317 0.10783872 221.27698617 0.10405939 222.25709593 0.10016555 C231.80781457 0.16190874 240.72103721 1.5978628 249.41552734 5.62231445 C250.10291992 5.93531494 250.7903125 6.24831543 251.49853516 6.57080078 C268.7335106 14.59545424 281.00245826 27.91675188 288.60302734 45.30981445 C293.6657294 59.799755 293.72110347 73.63478281 293.67871094 88.81225586 C293.68278192 91.26772799 293.68812674 93.72319829 293.69464111 96.17866516 C293.70684652 102.12582233 293.70513524 108.07287494 293.69640319 114.02002908 C293.6895981 118.85703461 293.68872205 123.69400835 293.69197464 128.5310173 C293.69243434 129.22227144 293.69289404 129.91352558 293.69336767 130.62572681 C293.69432694 132.03044357 293.69529958 133.43516032 293.69628544 134.83987705 C293.7048167 147.97634478 293.69504024 161.11274945 293.67888434 174.24920683 C293.66547724 185.49860755 293.66781686 196.74791539 293.68164062 207.99731445 C293.69772631 221.09334698 293.70399919 234.18932444 293.69480383 247.28536546 C293.69384828 248.68399134 293.69290517 250.08261723 293.69197464 251.48124313 C293.69151181 252.16921644 293.69104899 252.85718974 293.69057214 253.56601072 C293.68799164 258.39311764 293.69233272 263.22018934 293.6994133 268.0472908 C293.70874741 274.55303266 293.70202086 281.0586409 293.68473053 287.56436729 C293.68077773 289.94592054 293.68187894 292.3274886 293.68851852 294.70903587 C293.74646624 317.61277462 293.74646624 317.61277462 290.29052734 327.37231445 C289.91412109 328.56985352 289.53771484 329.76739258 289.14990234 331.0012207 C281.67962971 350.75535715 268.42275747 365.05989884 249.22802734 373.80981445 C239.69862552 377.94432625 229.50168267 378.6731974 219.22966003 378.63973999 C218.18460102 378.6442711 217.139542 378.64880222 216.06281453 378.65347064 C212.59724999 378.6660259 209.13184438 378.66450004 205.66625977 378.6628418 C203.16669007 378.66883251 200.66712221 378.67563931 198.16755676 378.68319702 C192.10416919 378.69898168 186.04084297 378.70530288 179.97744056 378.70642178 C175.0441163 378.70737588 170.11080475 378.7115041 165.17748451 378.71782303 C151.15795351 378.73541196 137.13845299 378.74466534 123.11891087 378.74316208 C122.36496569 378.74308217 121.61102052 378.74300226 120.83422852 378.74291992 C120.07935181 378.74283816 119.3244751 378.7427564 118.54672334 378.74267216 C106.3164322 378.74185946 94.08626426 378.76099917 81.85600873 378.78919666 C69.2660795 378.81799201 56.67621023 378.83173337 44.08624727 378.8300091 C37.03072891 378.82934759 29.97533981 378.8347346 22.9198513 378.8563652 C16.28196635 378.87658703 9.64430654 378.87583573 3.00639153 378.86133194 C0.57932892 378.85924944 -1.84775096 378.86391108 -4.27478409 378.87605286 C-27.91947564 378.98662025 -47.924845 375.45008091 -65.70947266 358.37231445 C-80.31491085 343.37355207 -85.85270091 324.14004589 -85.8633728 303.76159668 C-85.86775506 302.72867918 -85.87213731 301.69576167 -85.87665236 300.63154364 C-85.88994928 297.18901215 -85.89619858 293.74650621 -85.90234375 290.30395508 C-85.91025184 287.82777798 -85.91852123 285.35160202 -85.92712402 282.87542725 C-85.95100389 275.46042448 -85.96625712 268.04542599 -85.97918409 260.63039804 C-85.9829032 258.5324876 -85.9868758 256.43457781 -85.99093676 254.33666801 C-86.01617503 241.27827746 -86.038204 228.21988567 -86.0506649 215.16147614 C-86.05359404 212.14321387 -86.05655579 209.12495164 -86.05957031 206.10668945 C-86.06031636 205.35662209 -86.06106241 204.60655473 -86.06183107 203.83375806 C-86.07447294 191.69513983 -86.10768749 179.55666844 -86.14937215 167.41811877 C-86.19191762 154.92546375 -86.2153742 142.43288369 -86.22058547 129.94015646 C-86.22398477 122.93813794 -86.23556404 115.93634918 -86.2686882 108.93440247 C-86.29982778 102.34167911 -86.30503535 95.74928128 -86.29330444 89.15647125 C-86.29308478 86.7479783 -86.30130029 84.33946614 -86.31895828 81.9310379 C-86.48102744 58.5371537 -82.47355799 40.43274293 -66.70947266 22.37231445 C-66.17837891 21.74583008 -65.64728516 21.1193457 -65.10009766 20.47387695 C-47.66351303 1.39721754 -23.95318376 -0.08181778 0 0 Z " fill="#F5C518" transform="translate(901.70947265625,335.627685546875)"/>
<path d="M0 0 C1.04204916 -0.00297112 2.08409833 -0.00594224 3.15772474 -0.0090034 C6.64888966 -0.01767377 10.14002023 -0.01919725 13.63119507 -0.02069092 C16.13474602 -0.02532029 18.63829627 -0.03034511 21.1418457 -0.03573608 C27.94373341 -0.04885113 34.7456077 -0.05534038 41.5475049 -0.05974674 C45.79869365 -0.06251356 50.04988013 -0.06675174 54.30106735 -0.07125092 C66.08280354 -0.08344078 77.86453793 -0.09374038 89.64628029 -0.09712601 C90.7764988 -0.09745536 90.7764988 -0.09745536 91.92955001 -0.09779136 C93.06239887 -0.09811878 93.06239887 -0.09811878 94.21813357 -0.09845281 C95.74839886 -0.09889626 97.27866415 -0.09934283 98.80892944 -0.09979248 C99.56798609 -0.10001391 100.32704274 -0.10023534 101.1091011 -0.10046348 C113.39997362 -0.10440889 125.69078676 -0.12185631 137.98163636 -0.145152 C150.61542525 -0.1689034 163.2491844 -0.18132959 175.88299596 -0.18249393 C182.97034591 -0.1834086 190.0576185 -0.18910843 197.14494705 -0.20731354 C203.81473745 -0.22438632 210.48435641 -0.22593891 217.15417099 -0.21717453 C219.59700158 -0.21640533 222.03984012 -0.22073139 224.48265076 -0.23063278 C227.82828773 -0.24339414 231.17340888 -0.23745239 234.51904297 -0.22705078 C235.47607892 -0.23510719 236.43311486 -0.24316359 237.4191519 -0.25146413 C255.67102323 -0.11957303 273.18494606 7.81034255 286.32797241 20.26544189 C300.88194058 35.44226177 306.96721148 53.50524908 306.91462708 74.19458008 C306.91986375 75.23893353 306.92510043 76.28328698 306.9304958 77.3592875 C306.9453731 80.82251168 306.94619823 84.28558652 306.9468689 87.74884033 C306.95449854 90.24678798 306.96292741 92.74473329 306.97209167 95.24267578 C306.99396169 102.00316527 307.00284802 108.76359554 307.00791812 115.52411175 C307.01118887 119.75426125 307.01771941 123.98440179 307.02491951 128.2145462 C307.04446613 139.95362425 307.0608826 151.69269403 307.06379604 163.4317894 C307.06398361 164.18105143 307.06417118 164.93031347 307.06436444 165.70228042 C307.06473066 167.2208279 307.06509436 168.73937538 307.06545555 170.25792286 C307.06563836 171.01160531 307.06582117 171.76528777 307.06600952 172.54180908 C307.06628035 173.67373068 307.06628035 173.67373068 307.06655664 174.82851937 C307.0700972 187.05169461 307.09712084 199.27469358 307.13450741 211.49780771 C307.17268726 224.08209235 307.19195421 236.66628969 307.19225556 249.25063348 C307.19283782 256.30230667 307.20118043 263.35376929 307.23025322 270.40538788 C307.25748721 277.04084263 307.25859019 283.67595513 307.24259758 290.31147003 C307.24079014 292.73650523 307.24740943 295.16156481 307.26341629 297.58654785 C307.40939265 321.15160849 302.80035376 341.14792464 286.09164429 358.7053833 C272.17979977 372.46275579 254.27033517 378.30480425 235.19865417 378.27415466 C233.64042412 378.277553 233.64042412 378.277553 232.05071467 378.28101999 C228.57647216 378.28734033 225.10226886 378.28653188 221.62802124 378.28570557 C219.13417511 378.28869831 216.64032944 378.29210111 214.14648438 378.29588318 C208.07875078 378.30379908 202.01103255 378.30693737 195.94329522 378.30749556 C191.00792282 378.30797149 186.07255362 378.3100301 181.13718224 378.31319618 C167.12825587 378.32199939 153.11933714 378.32661618 139.11040799 378.32586571 C138.35583462 378.32582575 137.60126125 378.3257858 136.82382202 378.32574463 C136.06832149 378.32570375 135.31282096 378.32566287 134.53442647 378.32562075 C122.2985972 378.32521455 110.06279873 378.33477827 97.82697836 378.348883 C85.24739857 378.36326892 72.66783379 378.37015194 60.08824557 378.36928922 C53.03222933 378.36895798 45.97624539 378.37167304 38.92023659 378.38246727 C32.28083444 378.39255945 25.64148864 378.3922143 19.00207901 378.38495064 C16.57053846 378.38390712 14.13899363 378.38625379 11.7074604 378.3923111 C8.37729733 378.4000671 5.04736718 378.39536229 1.71720886 378.38768005 C0.76474598 378.39282362 -0.1877169 378.39796718 -1.16904229 378.40326661 C-10.85570803 378.35419748 -20.42300514 377.18237678 -29.29702759 373.14044189 C-29.96669556 372.8399292 -30.63636353 372.5394165 -31.32632446 372.22979736 C-48.34506058 364.20034153 -60.58627972 350.13266512 -67.71499634 332.85528564 C-70.89208191 323.78281386 -71.50854142 315.17978783 -71.50669861 305.64997864 C-71.5103753 304.61791556 -71.51405198 303.58585248 -71.51784009 302.52251476 C-71.52882074 299.07687402 -71.53271121 295.63126349 -71.53652954 292.18560791 C-71.54279848 289.70957851 -71.54944566 287.23355004 -71.55644226 284.75752258 C-71.57562289 277.33764889 -71.58626348 269.91778322 -71.59517005 262.49789205 C-71.59956428 258.99497685 -71.60492809 255.49206313 -71.61015892 251.98914909 C-71.6271635 240.33001425 -71.64165507 228.6708803 -71.64890766 217.01173496 C-71.65081723 213.99124208 -71.65273761 210.9707492 -71.6546936 207.95025635 C-71.65517734 207.19962349 -71.65566108 206.44899062 -71.65615948 205.67561131 C-71.66445032 193.53048749 -71.68977466 181.38546246 -71.72227428 169.24038173 C-71.75544071 156.74323728 -71.77336501 144.24614289 -71.7765519 131.74895424 C-71.77870807 124.74360546 -71.78732485 117.73840078 -71.81301308 110.73309517 C-71.83714901 104.13630751 -71.84048604 97.53973103 -71.83025169 90.94289207 C-71.82975869 88.53279382 -71.83600899 86.1226824 -71.84980774 83.7126236 C-71.97635713 60.28330224 -69.15393062 39.5744992 -52.35513306 22.07598877 C-51.03803539 20.74931055 -49.69951604 19.44399562 -48.35952759 18.14044189 C-47.75366821 17.53716064 -47.14780884 16.93387939 -46.52359009 16.31231689 C-33.61624531 4.34941198 -17.15128469 -0.01531428 0 0 Z " fill="#F5C518" transform="translate(414.3595275878906,335.85955810546875)"/>
</svg>
